HIERARCHY
ROOT root
{
	OFFSET	0	13.1	24.9
	CHANNELS 6  Xposition Yposition Zposition Xrotation Yrotation Zrotation
	JOINT spine_1
	{
		OFFSET	0	9.99999	0
		CHANNELS 3  Xrotation Yrotation Zrotation
		JOINT spine_2
		{
			OFFSET	0	112	-10
			CHANNELS 3  Xrotation Yrotation Zrotation
			JOINT spine_3
			{
				OFFSET	0	206.5	19.3
				CHANNELS 3  Xrotation Yrotation Zrotation
				JOINT spine_4
				{
					OFFSET	0	110.4	14.6
					CHANNELS 3  Xrotation Yrotation Zrotation
					JOINT neck_1
					{
						OFFSET	0	71.8	-50.3
						CHANNELS 3  Xrotation Yrotation Zrotation
						JOINT neck_2
						{
							OFFSET	0	86.2	-25.8
							CHANNELS 3  Xrotation Yrotation Zrotation
							JOINT head_ee
							{
								OFFSET	0	179.8	-8.7
								CHANNELS 3  Xrotation Yrotation Zrotation
								End Site
								{
									OFFSET	1	0	0
								}
							}
						}
					}
					JOINT left_clavicle
					{
						OFFSET	-43.2	22.4	-70.8
						CHANNELS 3  Xrotation Yrotation Zrotation
						JOINT left_shoulder
						{
							OFFSET	-93.9	-5.79999	48.7
							CHANNELS 3  Xrotation Yrotation Zrotation
							JOINT left_elbow
							{
								OFFSET	-291.4	-30.8	15.2
								CHANNELS 3  Xrotation Yrotation Zrotation
								JOINT left_lowarm_twist
								{
									OFFSET	-110.7	-3.89999	13.6
									CHANNELS 3  Xrotation Yrotation Zrotation
									JOINT left_hand
									{
										OFFSET	-110.7	-3.89999	13.6
										CHANNELS 3  Xrotation Yrotation Zrotation
										JOINT left_ee
										{
											OFFSET	-80.8	-5.10001	12.1
											CHANNELS 3  Xrotation Yrotation Zrotation
											End Site
											{
												OFFSET	1	0	0
											}
										}
									}
								}
							}
						}
					}
					JOINT right_clavicle
					{
						OFFSET	43.2	22.4	-70.8
						CHANNELS 3  Xrotation Yrotation Zrotation
						JOINT right_shoulder
						{
							OFFSET	93.9	-5.79999	48.7
							CHANNELS 3  Xrotation Yrotation Zrotation
							JOINT right_elbow
							{
								OFFSET	291.4	-30.8	15.2
								CHANNELS 3  Xrotation Yrotation Zrotation
								JOINT right_lowarm_twist
								{
									OFFSET	110.7	-3.89999	13.6
									CHANNELS 3  Xrotation Yrotation Zrotation
									JOINT right_hand
									{
										OFFSET	110.7	-3.89999	13.6
										CHANNELS 3  Xrotation Yrotation Zrotation
										JOINT right_ee
										{
											OFFSET	80.8	-5.10001	12.1
											CHANNELS 3  Xrotation Yrotation Zrotation
											End Site
											{
												OFFSET	1	0	0
											}
										}
									}
								}
							}
						}
					}
				}
			}
		}
	}
	JOINT left_hip
	{
		OFFSET	-82.8	-127.5	0.300001
		CHANNELS 3  Xrotation Yrotation Zrotation
		JOINT left_knee
		{
			OFFSET	-28.2	-396.7	2.2
			CHANNELS 3  Xrotation Yrotation Zrotation
			JOINT left_ankle
			{
				OFFSET	-11.7	-411.3	35.4
				CHANNELS 3  Xrotation Yrotation Zrotation
				JOINT left_toes
				{
					OFFSET	0	-60	-88.6
					CHANNELS 3  Xrotation Yrotation Zrotation
					JOINT left_foot_ee
					{
						OFFSET	-22.5	-16.5	-42.2
						CHANNELS 3  Xrotation Yrotation Zrotation
						End Site
						{
							OFFSET	1	0	0
						}
					}
				}
			}
		}
	}
	JOINT right_hip
	{
		OFFSET	82.8	-127.5	0.300001
		CHANNELS 3  Xrotation Yrotation Zrotation
		JOINT right_knee
		{
			OFFSET	28.2	-396.7	2.2
			CHANNELS 3  Xrotation Yrotation Zrotation
			JOINT right_ankle
			{
				OFFSET	11.7	-411.3	35.4
				CHANNELS 3  Xrotation Yrotation Zrotation
				JOINT right_toes
				{
					OFFSET	0	-60	-88.6
					CHANNELS 3  Xrotation Yrotation Zrotation
					JOINT right_foot_ee
					{
						OFFSET	22.5	-16.5	-42.2
						CHANNELS 3  Xrotation Yrotation Zrotation
						End Site
						{
							OFFSET	1	0	0
						}
					}
				}
			}
		}
	}
}
MOTION
Frames: 6
Frame Time: 0.02
600.664 736.209 -1451.39 166.581 82.6927 -167.141 0.557366 0.504496 0.828944 0.557635 0.450727 0.859364 0.564651 0.269286 0.932275 0.563676 0.413137 0.878053 -22.6328 1.63732 -0.834211 -22.653 3.5455 -0.015212 -0.0 0.0 -0.0 4.24068 -7.07983 7.79811 4.80917 -17.1172 58.0241 2.0601 -45.5763 0.865563 -49.2017 -3.97853 4.6405 0.249731 24.5549 11.2077 -0.0 0.0 -0.0 7.46059 12.7931 -14.2453 -28.9452 11.0023 -71.0947 0.457606 12.7724 -0.0512175 24.2036 -0.208855 3.06184 -0.928688 23.8012 16.3042 0.0 0.0 0.0 1.87981 -16.5069 3.42961 3.16919 -0.143421 -0.465068 28.8776 -5.84469 -3.85202 -40.0917 0.0 0.0 -0.0 0.0 -0.0 19.7705 0.971955 5.48529 -46.2132 0.908586 -6.84517 40.9811 -19.7325 5.11188 -6.11996 0.0 0.0 0.0 0.0 0.0 
594.501 734.76 -1454.56 166.908 83.9597 -167.227 0.591829 0.549885 0.884488 0.59213 0.492491 0.917683 0.600307 0.299139 0.997594 0.599204 0.452929 0.937839 -22.2455 1.70712 -0.276399 -22.2652 3.42427 0.522594 -0.0 0.0 -0.0 3.9626 -8.93451 7.1026 4.52541 -14.9719 57.4778 2.2181 -47.6884 0.980443 -49.6078 -4.0259 4.66224 -0.790394 24.0023 5.01729 -0.0 0.0 -0.0 6.84521 13.0768 -12.9107 -28.3382 12.7156 -73.201 0.480141 13.3793 -0.0563159 22.3553 -0.238758 2.82765 -0.783475 24.114 15.4494 0.0 0.0 0.0 1.60855 -12.7043 3.04255 3.3995 -0.154846 -0.498552 31.832 -7.02852 -4.18677 -40.0498 0.0 0.0 -0.0 0.0 -0.0 20.3516 -0.629601 5.83162 -39.9387 0.462875 -5.98971 39.8969 -15.9849 4.939 -10.3325 0.0 0.0 0.0 0.0 0.0 
586.852 734.043 -1453.91 165.885 85.8319 -166.479 0.687687 0.752985 0.89291 0.687862 0.694644 0.939012 0.699574 0.494821 1.05802 0.698612 0.655698 0.966607 -22.1808 2.16555 -0.574253 -22.2135 4.4492 0.453859 -0.0 0.0 -0.0 3.72566 -8.27938 6.66075 4.94381 -14.0437 57.4187 2.30196 -48.7442 1.04298 -49.3277 -3.9932 4.64728 -1.22305 25.1454 3.04672 -0.0 0.0 -0.0 6.46688 13.8998 -12.0532 -28.212 15.1978 -74.1345 0.510044 14.1798 -0.0634386 20.2156 -0.263919 2.5555 -0.505051 24.8713 13.89 0.0 0.0 0.0 1.32893 -10.0237 3.70612 3.26627 -0.14822 -0.479188 31.9263 -6.652 -4.19038 -39.928 0.0 0.0 -0.0 0.0 -0.0 19.6019 -1.18263 5.88707 -33.2202 0.0926856 -5.02661 39.7978 -14.6637 4.90951 -11.1898 0.0 0.0 0.0 0.0 0.0 
578.442 729.376 -1456.37 178.06 86.0832 -178.89 0.909801 0.868546 1.06781 0.91008 0.798842 1.12091 0.926126 0.56592 1.25471 0.924728 0.756963 1.14961 -20.7781 1.74869 0.540321 -20.7917 3.10604 1.25407 -0.0 0.0 -0.0 3.65306 -9.33619 6.43352 4.79626 -12.5369 57.1173 2.4963 -51.0303 1.19163 -50.1143 -4.08519 4.68887 -1.50919 23.2486 0.575348 -0.0 0.0 -0.0 6.4966 15.1039 -12.0414 -27.3805 16.0543 -75.122 0.464606 12.9613 -0.0527764 19.1842 -0.272412 2.42405 -0.0481547 26.1397 11.389 0.0 0.0 0.0 1.41676 -5.5537 4.33822 3.72276 -0.171107 -0.545474 35.1355 -5.1355 -4.48894 -38.3784 0.0 0.0 -0.0 0.0 -0.0 17.1123 -1.90414 5.06029 -22.8738 -0.25045 -3.47797 39.4229 -10.5766 4.82989 -14.3095 0.0 0.0 0.0 0.0 0.0 
572.556 730.613 -1457.49 -179.083 87.4512 177.924 0.705473 0.952839 1.21914 0.705875 0.873338 1.27729 0.725927 0.603689 1.42467 0.724035 0.821095 1.31148 -21.6843 2.09283 0.279708 -21.7086 3.90476 1.19381 -0.0 0.0 -0.0 3.22437 -9.57741 5.52801 4.75589 -12.1222 56.8826 2.52171 -51.3136 1.21143 -49.3372 -3.99431 4.64779 -1.69694 23.6156 -0.330466 -0.0 0.0 -0.0 6.06299 14.9984 -11.1173 -27.1865 17.1006 -75.7336 0.556571 15.4142 -0.0753219 18.949 -0.274018 2.39404 -0.177802 25.1779 11.8462 0.0 0.0 0.0 1.00107 -7.4928 3.41931 3.69408 -0.169654 -0.541314 33.8733 -7.16339 -4.39739 -39.4847 0.0 0.0 -0.0 0.0 -0.0 19.4791 -2.14833 5.85894 -22.6922 -0.253956 -3.45033 39.0441 -9.82784 4.79037 -14.0018 0.0 0.0 0.0 0.0 0.0 
568.13 728.978 -1456.87 -173.614 87.6888 172.215 0.732907 1.02107 1.30972 0.733374 0.935667 1.37203 0.756444 0.646915 1.5295 0.75426 0.880329 1.40817 -21.3124 2.26335 0.188855 -21.3411 4.27547 1.17127 -0.0 0.0 -0.0 3.39086 -9.90265 5.84702 4.65497 -10.7155 56.8068 2.59868 -52.1507 1.27186 -50.3158 -4.10885 4.69932 -2.20544 25.6927 -2.20102 -0.0 0.0 -0.0 5.96144 15.6348 -10.8556 -26.1236 17.8062 -75.6541 0.567846 15.7112 -0.0783471 18.4132 -0.277216 2.32568 -0.0887139 25.2393 11.2843 0.0 0.0 0.0 0.716991 -5.91833 3.84417 3.13338 -0.141657 -0.459858 34.3338 -7.21579 -4.44408 -39.3905 0.0 0.0 -0.0 0.0 -0.0 19.3867 -2.49525 5.96909 -22.1729 -0.263499 -3.37121 38.9084 -8.58598 4.77081 -13.8897 0.0 0.0 0.0 0.0 0.0 
